<!-- Generated by IcoMoon.io -->
<svg version="1.1" xmlns="http://www.w3.org/2000/svg" width="32" height="32" viewBox="0 0 32 32">
<title>WebStudio</title>
<path fill="#2196f3" d="M1.83 13.924h0.729l0.459 1.348 0.459-1.348h0.734l-0.694 1.853 0.516 1.303 1.153-3.167h0.861l-1.658 4.074h-0.666l-0.706-1.71-0.706 1.71h-0.666l-1.647-4.074h0.849l1.159 3.167 0.505-1.303-0.683-1.853zM7.587 18.044c-0.241 0-0.459-0.040-0.654-0.12-0.195-0.084-0.362-0.197-0.499-0.339s-0.245-0.306-0.321-0.493c-0.073-0.187-0.109-0.384-0.109-0.591 0-0.214 0.036-0.415 0.109-0.602 0.073-0.191 0.178-0.358 0.316-0.499 0.138-0.145 0.304-0.26 0.499-0.344 0.199-0.084 0.421-0.126 0.666-0.126s0.463 0.042 0.654 0.126c0.195 0.084 0.36 0.197 0.493 0.339 0.138 0.142 0.241 0.306 0.31 0.493 0.073 0.187 0.109 0.383 0.109 0.585 0 0.050-0.002 0.098-0.006 0.143 0 0.046-0.004 0.084-0.011 0.115h-2.324c0.011 0.119 0.040 0.224 0.086 0.316s0.105 0.17 0.178 0.235c0.073 0.065 0.155 0.115 0.247 0.149s0.187 0.052 0.287 0.052c0.153 0 0.296-0.036 0.43-0.109 0.138-0.076 0.231-0.176 0.281-0.298l0.66 0.184c-0.111 0.23-0.289 0.419-0.534 0.568-0.241 0.145-0.53 0.218-0.866 0.218zM8.367 16.23c-0.019-0.226-0.103-0.405-0.252-0.539-0.145-0.138-0.323-0.207-0.534-0.207-0.103 0-0.201 0.019-0.293 0.057-0.088 0.034-0.166 0.084-0.235 0.149s-0.126 0.143-0.172 0.235c-0.042 0.092-0.067 0.193-0.075 0.304h1.561zM11.51 18.044c-0.23 0-0.434-0.052-0.614-0.155s-0.321-0.245-0.425-0.425v0.522h-0.671v-4.189h0.769v1.71c0.107-0.184 0.247-0.325 0.419-0.425 0.176-0.103 0.381-0.155 0.614-0.155 0.195 0 0.373 0.042 0.534 0.126s0.298 0.197 0.413 0.339c0.119 0.142 0.208 0.308 0.27 0.499 0.065 0.191 0.098 0.392 0.098 0.602 0 0.218-0.036 0.421-0.109 0.608-0.069 0.187-0.166 0.352-0.293 0.493-0.126 0.138-0.275 0.247-0.448 0.327s-0.358 0.12-0.557 0.12zM11.297 17.389c0.122 0 0.235-0.023 0.339-0.069 0.103-0.050 0.191-0.115 0.264-0.195s0.128-0.174 0.166-0.281c0.042-0.107 0.063-0.222 0.063-0.344s-0.019-0.239-0.057-0.35c-0.038-0.111-0.094-0.208-0.166-0.293-0.069-0.084-0.151-0.151-0.247-0.201s-0.201-0.075-0.316-0.075c-0.172 0-0.327 0.057-0.465 0.172-0.134 0.111-0.237 0.249-0.31 0.413v0.717c0.027 0.076 0.065 0.145 0.115 0.207 0.054 0.061 0.113 0.115 0.178 0.161 0.065 0.042 0.136 0.076 0.212 0.103 0.076 0.023 0.151 0.034 0.224 0.034z"></path>
<path fill="#fff" d="M16.11 14.98c-0.027-0.027-0.076-0.063-0.149-0.109-0.069-0.046-0.155-0.090-0.258-0.132-0.099-0.046-0.209-0.084-0.327-0.115s-0.239-0.046-0.361-0.046c-0.218 0-0.381 0.040-0.488 0.12s-0.161 0.193-0.161 0.339c0 0.084 0.019 0.155 0.057 0.212 0.042 0.054 0.101 0.101 0.178 0.143s0.172 0.080 0.287 0.115c0.119 0.034 0.254 0.071 0.407 0.109 0.199 0.054 0.379 0.111 0.539 0.172 0.164 0.061 0.302 0.138 0.413 0.23 0.115 0.092 0.203 0.203 0.264 0.333 0.061 0.126 0.092 0.283 0.092 0.471 0 0.218-0.042 0.405-0.126 0.562-0.080 0.153-0.191 0.277-0.333 0.373-0.138 0.096-0.298 0.166-0.482 0.212-0.18 0.042-0.369 0.063-0.568 0.063-0.306 0-0.608-0.046-0.907-0.138s-0.566-0.222-0.803-0.39l0.35-0.683c0.034 0.034 0.096 0.080 0.184 0.138 0.092 0.054 0.199 0.109 0.321 0.166 0.122 0.054 0.258 0.099 0.407 0.138s0.302 0.057 0.459 0.057c0.436 0 0.654-0.14 0.654-0.419 0-0.088-0.025-0.163-0.075-0.224s-0.12-0.115-0.212-0.161c-0.092-0.046-0.203-0.088-0.333-0.126s-0.275-0.080-0.436-0.126c-0.195-0.054-0.365-0.111-0.511-0.172-0.142-0.065-0.26-0.14-0.356-0.224-0.096-0.088-0.168-0.187-0.218-0.298-0.046-0.115-0.069-0.251-0.069-0.407 0-0.207 0.038-0.39 0.115-0.551s0.182-0.295 0.316-0.402c0.138-0.107 0.296-0.187 0.476-0.241 0.18-0.057 0.373-0.086 0.58-0.086 0.287 0 0.551 0.046 0.792 0.138 0.241 0.088 0.451 0.193 0.631 0.316l-0.35 0.643zM19.068 17.831c-0.103 0.046-0.23 0.092-0.379 0.138s-0.306 0.069-0.471 0.069c-0.107 0-0.209-0.013-0.304-0.040-0.092-0.027-0.174-0.069-0.247-0.126-0.069-0.061-0.124-0.138-0.166-0.23-0.042-0.096-0.063-0.21-0.063-0.344v-1.727h-0.396v-0.591h0.396v-0.975h0.769v0.975h0.631v0.591h-0.631v1.469c0 0.107 0.027 0.184 0.080 0.23 0.057 0.042 0.126 0.063 0.207 0.063s0.159-0.013 0.235-0.040c0.076-0.027 0.138-0.050 0.184-0.069l0.155 0.608zM20.559 18.044c-0.31 0-0.545-0.099-0.706-0.298s-0.241-0.493-0.241-0.884v-1.882h0.769v1.716c0 0.463 0.166 0.694 0.499 0.694 0.149 0 0.293-0.044 0.43-0.132 0.142-0.092 0.256-0.23 0.344-0.413v-1.865h0.769v2.123c0 0.080 0.013 0.138 0.040 0.172 0.030 0.034 0.078 0.054 0.143 0.057v0.654c-0.077 0.015-0.142 0.025-0.195 0.029-0.050 0.004-0.096 0.006-0.138 0.006-0.138 0-0.251-0.031-0.339-0.092-0.084-0.065-0.134-0.153-0.149-0.264l-0.017-0.241c-0.134 0.207-0.306 0.361-0.516 0.465s-0.442 0.155-0.694 0.155zM24.605 18.044c-0.207 0-0.398-0.040-0.574-0.12s-0.327-0.191-0.453-0.333c-0.126-0.142-0.226-0.306-0.298-0.493-0.069-0.191-0.103-0.396-0.103-0.614s0.032-0.421 0.098-0.608c0.069-0.187 0.163-0.352 0.281-0.493s0.26-0.252 0.425-0.333c0.164-0.080 0.344-0.12 0.539-0.12 0.222 0 0.421 0.054 0.597 0.161 0.18 0.107 0.319 0.247 0.419 0.419v-1.71h0.769v3.305c0 0.080 0.013 0.138 0.040 0.172s0.073 0.054 0.138 0.057v0.654c-0.134 0.027-0.243 0.040-0.327 0.040-0.138 0-0.25-0.034-0.339-0.103s-0.138-0.159-0.149-0.27l-0.017-0.189c-0.111 0.191-0.262 0.337-0.453 0.436-0.187 0.096-0.384 0.143-0.591 0.143zM24.806 17.389c0.073 0 0.147-0.011 0.224-0.034 0.077-0.027 0.147-0.063 0.212-0.109s0.122-0.099 0.172-0.161c0.054-0.061 0.094-0.128 0.12-0.201v-0.717c-0.031-0.084-0.075-0.161-0.132-0.23-0.054-0.073-0.117-0.134-0.189-0.184-0.069-0.054-0.143-0.096-0.224-0.126-0.077-0.031-0.153-0.046-0.23-0.046-0.115 0-0.222 0.025-0.321 0.075-0.096 0.050-0.178 0.119-0.247 0.207-0.069 0.084-0.122 0.182-0.161 0.293s-0.057 0.226-0.057 0.344c0 0.126 0.021 0.243 0.063 0.35s0.1 0.201 0.172 0.281c0.073 0.080 0.159 0.143 0.258 0.189 0.103 0.046 0.216 0.069 0.339 0.069zM27.23 17.986v-3.007h0.769v3.007h-0.769zM27.23 14.561v-0.763h0.769v0.763h-0.769zM30.253 18.044c-0.245 0-0.465-0.042-0.66-0.126s-0.361-0.197-0.499-0.339c-0.134-0.145-0.237-0.312-0.31-0.499s-0.109-0.384-0.109-0.591c0-0.21 0.036-0.409 0.109-0.597s0.176-0.352 0.31-0.493c0.138-0.145 0.304-0.26 0.499-0.344s0.415-0.126 0.66-0.126c0.245 0 0.463 0.042 0.654 0.126 0.195 0.084 0.36 0.199 0.493 0.344 0.138 0.142 0.243 0.306 0.316 0.493s0.109 0.386 0.109 0.597c0 0.207-0.036 0.404-0.109 0.591s-0.176 0.354-0.31 0.499c-0.134 0.142-0.298 0.254-0.493 0.339s-0.415 0.126-0.66 0.126zM29.467 16.489c0 0.134 0.019 0.256 0.057 0.367 0.042 0.107 0.098 0.201 0.166 0.281 0.073 0.080 0.157 0.143 0.252 0.189 0.096 0.042 0.199 0.063 0.31 0.063s0.214-0.021 0.31-0.063c0.096-0.046 0.178-0.109 0.247-0.189 0.073-0.080 0.128-0.176 0.166-0.287 0.042-0.111 0.063-0.233 0.063-0.367 0-0.13-0.021-0.251-0.063-0.361-0.038-0.111-0.094-0.207-0.166-0.287-0.069-0.080-0.151-0.142-0.247-0.184-0.096-0.046-0.199-0.069-0.31-0.069s-0.214 0.023-0.31 0.069c-0.096 0.046-0.18 0.109-0.252 0.189-0.069 0.080-0.124 0.176-0.166 0.287-0.038 0.111-0.057 0.231-0.057 0.361z"></path>
</svg>
